<svg xmlns="http://www.w3.org/2000/svg" width="18" height="15" viewBox="0 0 18 15">
    <path style="fill:none;opacity:.398" d="M0 0h18v15H0z"/>
    <path data-name="패스 15" d="M9.582 13.4c1.466-1.361 3.874-3.561 3.874-5.446 0-.838-.47-1.1-1.151-1.465A3.334 3.334 0 0 1 10 3.247 3.229 3.229 0 0 1 13.246 0c2.671 0 3.876 2.566 3.876 4.922 0 4.084-3.718 7.382-6.912 9.372zM0 13.4c1.466-1.361 3.874-3.561 3.874-5.446 0-.838-.471-1.1-1.2-1.465A3.355 3.355 0 0 1 .419 3.247 3.229 3.229 0 0 1 3.665 0C6.335 0 7.54 2.566 7.54 4.922c0 4.084-3.77 7.382-6.911 9.372z" transform="translate(.44 .705)" style="fill:#111"/>
</svg>
