<svg xmlns="http://www.w3.org/2000/svg" width="24" height="24" viewBox="0 0 24 24">
    <g transform="translate(-1389 -1771)">
        <circle cx="12" cy="12" r="12" transform="translate(1389 1771)" style="fill:#111"/>
        <path data-name="패스 84" d="M8.987 7.768a.67.67 0 0 0-.683 0l-1.067.636a.668.668 0 0 1-.757-.045 17.368 17.368 0 0 1-1.519-1.321 17.369 17.369 0 0 1-1.325-1.519.668.668 0 0 1-.045-.757L4.227 3.7a.673.673 0 0 0 0-.685L2.663.335A.675.675 0 0 0 1.918.02 2.213 2.213 0 0 0 .882.643C-.326 1.85-.967 3.887 3.573 8.427s6.576 3.9 7.784 2.692a2.222 2.222 0 0 0 .623-1.039.672.672 0 0 0-.313-.742l-2.68-1.57" transform="translate(1395 1776.999)" style="fill:#fff"/>
    </g>
</svg>
