<svg xmlns="http://www.w3.org/2000/svg" width="18" height="15" viewBox="0 0 18 15">
    <path style="fill:none;opacity:.398" d="M0 0h18v15H0z"/>
    <path data-name="패스 15" d="M7.54.89C6.074 2.252 3.666 4.451 3.666 6.336c0 .838.47 1.1 1.151 1.465a3.334 3.334 0 0 1 2.3 3.247 3.229 3.229 0 0 1-3.246 3.247C1.205 14.294 0 11.729 0 9.372 0 5.289 3.718 1.99 6.912 0zm9.582 0c-1.466 1.361-3.874 3.561-3.874 5.446 0 .838.471 1.1 1.2 1.465a3.355 3.355 0 0 1 2.252 3.247 3.229 3.229 0 0 1-3.246 3.247c-2.671 0-3.875-2.566-3.875-4.922 0-4.084 3.77-7.382 6.911-9.372z" transform="translate(.438)" style="fill:#111"/>
</svg>
