<svg xmlns="http://www.w3.org/2000/svg" width="120" height="19" viewBox="0 0 120 19">
    <path data-name="base" style="fill:none;opacity:.247" d="M0 0h120v19H0z"/>
    <path style="fill:none;opacity:.247" d="M0 0h120v17H0z"/>
    <path data-name="패스 1" d="M126.875 92.4c0-.98-.741-1.547-1.743-2.113l-2.114-1.155c-1.329-.741-2.375-1.7-2.375-3.224a3.635 3.635 0 0 1 3.943-3.638 3.9 3.9 0 0 1 2.767 1.089l.24-.893h.872v4.008h-.828l-.217-.763a2.889 2.889 0 0 0-2.766-2.461 1.721 1.721 0 0 0-1.852 1.743c0 1.089.937 1.525 1.852 2.026l1.939 1.111c1.438.806 2.505 1.677 2.505 3.4a4 4 0 0 1-4.292 3.856 4.457 4.457 0 0 1-3.137-1.263l-.24 1.045h-.915V90.7h.872l.2.98a3.254 3.254 0 0 0 3.114 2.68c1.264 0 2.179-.632 2.179-1.961" transform="translate(-120.079 -81.13)" style="fill:#fff"/>
    <path data-name="패스 2" d="m135.084 98.372.284-.871a3.645 3.645 0 0 0 1.437.37c1.068 0 1.765-.611 1.765-2.091V83.667h-1.46v-1.024h5.49v1.024h-1.46v11.394a3.718 3.718 0 0 1-3.878 3.856 3.957 3.957 0 0 1-2.179-.545" transform="translate(-125.775 -81.287)" style="fill:#fff"/>
    <path data-name="패스 3" d="M151.189 95.323V94.3h1.438V83.668h-1.438v-1.024h5.468v1.024H155.2V94.3h4.553l.348-3.072h1.068v4.1z" transform="translate(-131.779 -81.287)" style="fill:#fff"/>
    <path data-name="패스 4" d="M188.727 90.64v-.575h.984v-6.807h-.984v-.574h3.213c1.681 0 3.089.752 3.089 2.173s-1.408 2.173-3.089 2.173h-.971v3.034h1.258v.575zm2.242-7.382v3.253h.807c1.039 0 1.954-.465 1.954-1.654s-.916-1.6-1.954-1.6z" transform="translate(-143.727 -80.698)" style="fill:#fff"/>
    <path data-name="패스 5" d="M205.216 90.64h-2.761v-.575h.875l2.693-7.381h1.053l2.775 7.381h.847v.575h-3.2v-.575h1l-.929-2.583h-2.6l-.9 2.583h1.148zm-.041-3.718h2.187l-1.107-3.1z" transform="translate(-149.721 -80.698)" style="fill:#fff"/>
    <path data-name="패스 6" d="M221.549 90.64v-.575h.984v-6.807h-.984v-.574h3.2c1.7 0 3.1.752 3.1 2.173a2.168 2.168 0 0 1-1.927 2.036l2.351 3.171h1.107v.575h-2.228l-2.447-3.609h-.916v3.034h1v.575zm2.242-7.382v3.253h.847c1.039 0 1.969-.465 1.969-1.654s-.929-1.6-1.969-1.6z" transform="translate(-158.11 -80.698)" style="fill:#fff"/>
    <path data-name="패스 7" d="M240.408 90.61v-.572h1.266v-6.782h-2.138l-.2 1.852h-.6v-2.424h7.137v2.424h-.6l-.2-1.852h-2.138v6.782h1.266v.572z" transform="translate(-165.665 -80.698)" style="fill:#fff"/>
    <path data-name="패스 8" d="M259.895 90.639h-3.035v-.574h1.148v-6.807h-1.148v-.574h2.693l3.964 5.7v-5.126h-1.19v-.574h3.035v.574h-1.135v7.382h-.506l-5-7.176v6.6h1.176z" transform="translate(-173.446 -80.698)" style="fill:#fff"/>
    <path data-name="패스 9" d="M276.824 90.639v-.574h.984v-6.807h-.984v-.574h6.165v2.269h-.6l-.205-1.7h-3.116v3.035h1.941v-.93h.6v2.452h-.6v-.943h-1.941v3.2h3.332l.2-1.791h.6v2.365z" transform="translate(-182.187 -80.698)" style="fill:#fff"/>
    <path data-name="패스 10" d="M293.549 90.64v-.575h.984v-6.807h-.984v-.574h3.2c1.695 0 3.1.752 3.1 2.173a2.168 2.168 0 0 1-1.927 2.036l2.351 3.171h1.107v.575h-2.228l-2.447-3.609h-.916v3.034h1v.575zm2.242-7.382v3.253h.847c1.039 0 1.969-.465 1.969-1.654s-.93-1.6-1.969-1.6z" transform="translate(-189.341 -80.698)" style="fill:#fff"/>
    <path data-name="패스 11" d="M316.485 88.744c0-.656-.492-1.053-1.148-1.408l-1.326-.711a2.364 2.364 0 0 1-1.5-1.982 2.167 2.167 0 0 1 2.352-2.2 2.213 2.213 0 0 1 1.695.711l.164-.574h.492v2.556h-.465l-.136-.533a1.849 1.849 0 0 0-1.777-1.6 1.2 1.2 0 0 0-1.258 1.23c0 .779.643 1.052 1.285 1.408l1.175.656c.875.492 1.545 1.025 1.545 2.05a2.385 2.385 0 0 1-2.543 2.324 2.744 2.744 0 0 1-1.954-.807l-.164.67h-.492v-2.815h.479l.11.615a2.047 2.047 0 0 0 1.982 1.763 1.309 1.309 0 0 0 1.49-1.353" transform="translate(-197.935 -80.593)" style="fill:#fff"/>
</svg>
